HIERARCHY
ROOT Hips
{
  OFFSET 352.181 89.6817 215.948
  CHANNELS 6 Xposition Yposition Zposition Zrotation Xrotation Yrotation
  JOINT RightUpLeg
  {
    OFFSET -9.28908 -1.54242 -0.003762
    CHANNELS 3 Zrotation Xrotation Yrotation
    JOINT RightLeg
    {
      OFFSET 0.175992 -41.9066 0.16442
      CHANNELS 3 Zrotation Xrotation Yrotation
      JOINT RightFoot
      {
        OFFSET -0.850518 -41.676 1.19357
        CHANNELS 3 Zrotation Xrotation Yrotation
        End Site
        {
          OFFSET 0 -7.69 17.5
        }
      }
    }
  }
  JOINT LeftUpLeg
  {
    OFFSET 9.35911 -1.62184 0.0934226
    CHANNELS 3 Zrotation Xrotation Yrotation
    JOINT LeftLeg
    {
      OFFSET 0.11037 -41.8771 -4.76722e-05
      CHANNELS 3 Zrotation Xrotation Yrotation
      JOINT LeftFoot
      {
        OFFSET 0.784832 -42.2153 -2.4698
        CHANNELS 3 Zrotation Xrotation Yrotation
        End Site
        {
          OFFSET 0 -7.69 17.5
        }
      }
    }
  }
  JOINT Spine
  {
    OFFSET -0.0264112 14.3118 0.141242
    CHANNELS 3 Zrotation Xrotation Yrotation
    JOINT Spine1
    {
      OFFSET -0.0608006 9.71827 0.0702426
      CHANNELS 3 Zrotation Xrotation Yrotation
      JOINT Spine2
      {
        OFFSET 0.040197 10.1251 -0.0199022
        CHANNELS 3 Zrotation Xrotation Yrotation
        JOINT Spine3
        {
          OFFSET -0.018884 9.71791 0.0127475
          CHANNELS 3 Zrotation Xrotation Yrotation
          JOINT Neck
          {
            OFFSET -0.169577 10.3664 -0.0885607
            CHANNELS 3 Zrotation Xrotation Yrotation
            JOINT Head
            {
              OFFSET -0.26372 9.48406 0.127016
              CHANNELS 3 Zrotation Xrotation Yrotation
              End Site
              {
                OFFSET 0 15.95 0
              }
            }
          }
          JOINT RightShoulder
          {
            OFFSET -3.21308 6.8767 -0.0450237
            CHANNELS 3 Zrotation Xrotation Yrotation
            JOINT RightArm
            {
              OFFSET -12.7762 -0.0188046 -0.0629949
              CHANNELS 3 Zrotation Xrotation Yrotation
              JOINT RightForeArm
              {
                OFFSET -26.5383 -0.000218244 -0.103623
                CHANNELS 3 Zrotation Xrotation Yrotation
                JOINT RightHand
                {
                  OFFSET -25.8669 -0.047899 -0.0603739
                  CHANNELS 3 Zrotation Xrotation Yrotation
                  JOINT RightHandThumb1
                  {
                    OFFSET -2.48905 0.190105 3.12053
                    CHANNELS 3 Zrotation Xrotation Yrotation
                    JOINT RightHandThumb2
                    {
                      OFFSET -3.68274 0 0
                      CHANNELS 3 Zrotation Xrotation Yrotation
                      JOINT RightHandThumb3
                      {
                        OFFSET -2.55832 0 0
                        CHANNELS 3 Zrotation Xrotation Yrotation
                        End Site
                        {
                          OFFSET -2.194 0 0
                        }
                      }
                    }
                  }
                  JOINT RightInHandIndex
                  {
                    OFFSET -3.22368 0.508421 1.97842
                    CHANNELS 3 Zrotation Xrotation Yrotation
                    JOINT RightHandIndex1
                    {
                      OFFSET -5.21684 -0.091368 0.999158
                      CHANNELS 3 Zrotation Xrotation Yrotation
                      JOINT RightHandIndex2
                      {
                        OFFSET -3.61937 0 0
                        CHANNELS 3 Zrotation Xrotation Yrotation
                        JOINT RightHandIndex3
                        {
                          OFFSET -2.0521 0 0
                          CHANNELS 3 Zrotation Xrotation Yrotation
                          End Site
                          {
                            OFFSET -1.805 0 0
                          }
                        }
                      }
                    }
                  }
                  JOINT RightInHandMiddle
                  {
                    OFFSET -3.38211 0.517263 0.756737
                    CHANNELS 3 Zrotation Xrotation Yrotation
                    JOINT RightHandMiddle1
                    {
                      OFFSET -5.17411 -0.084 0.313895
                      CHANNELS 3 Zrotation Xrotation Yrotation
                      JOINT RightHandMiddle2
                      {
                        OFFSET -3.94947 0 0
                        CHANNELS 3 Zrotation Xrotation Yrotation
                        JOINT RightHandMiddle3
                        {
                          OFFSET -2.47579 0 0
                          CHANNELS 3 Zrotation Xrotation Yrotation
                          End Site
                          {
                            OFFSET -1.975 0 0
                          }
                        }
                      }
                    }
                  }
                  JOINT RightInHandRing
                  {
                    OFFSET -3.36516 0.537895 -0.128947
                    CHANNELS 3 Zrotation Xrotation Yrotation
                    JOINT RightHandRing1
                    {
                      OFFSET -4.63474 -0.022105 -0.478947
                      CHANNELS 3 Zrotation Xrotation Yrotation
                      JOINT RightHandRing2
                      {
                        OFFSET -3.44238 0 0
                        CHANNELS 3 Zrotation Xrotation Yrotation
                        JOINT RightHandRing3
                        {
                          OFFSET -2.3881 0 0
                          CHANNELS 3 Zrotation Xrotation Yrotation
                          End Site
                          {
                            OFFSET -1.857 0 0
                          }
                        }
                      }
                    }
                  }
                  JOINT RightInHandPinky
                  {
                    OFFSET -3.16105 0.469368 -1.20179
                    CHANNELS 3 Zrotation Xrotation Yrotation
                    JOINT RightHandPinky1
                    {
                      OFFSET -4.14105 -0.022105 -1.09053
                      CHANNELS 3 Zrotation Xrotation Yrotation
                      JOINT RightHandPinky2
                      {
                        OFFSET -2.75653 0 0
                        CHANNELS 3 Zrotation Xrotation Yrotation
                        JOINT RightHandPinky3
                        {
                          OFFSET -1.74189 0 0
                          CHANNELS 3 Zrotation Xrotation Yrotation
                          End Site
                          {
                            OFFSET -1.645 0 0
                          }
                        }
                      }
                    }
                  }
                }
              }
            }
          }
          JOINT LeftShoulder
          {
            OFFSET 3.21013 6.92813 0.031381
            CHANNELS 3 Zrotation Xrotation Yrotation
            JOINT LeftArm
            {
              OFFSET 12.8361 0.00272676 -0.00293476
              CHANNELS 3 Zrotation Xrotation Yrotation
              JOINT LeftForeArm
              {
                OFFSET 26.5005 -0.02636 0.00399578
                CHANNELS 3 Zrotation Xrotation Yrotation
                JOINT LeftHand
                {
                  OFFSET 25.9821 -0.0367196 0.00246136
                  CHANNELS 3 Zrotation Xrotation Yrotation
                  JOINT LeftHandThumb1
                  {
                    OFFSET 2.48905 0.190105 3.12053
                    CHANNELS 3 Zrotation Xrotation Yrotation
                    JOINT LeftHandThumb2
                    {
                      OFFSET 3.68274 0 0
                      CHANNELS 3 Zrotation Xrotation Yrotation
                      JOINT LeftHandThumb3
                      {
                        OFFSET 2.55832 0 0
                        CHANNELS 3 Zrotation Xrotation Yrotation
                        End Site
                        {
                          OFFSET 2.194 0 0
                        }
                      }
                    }
                  }
                  JOINT LeftInHandIndex
                  {
                    OFFSET 3.22368 0.508421 1.97842
                    CHANNELS 3 Zrotation Xrotation Yrotation
                    JOINT LeftHandIndex1
                    {
                      OFFSET 5.21684 -0.091368 0.999158
                      CHANNELS 3 Zrotation Xrotation Yrotation
                      JOINT LeftHandIndex2
                      {
                        OFFSET 3.61937 0 0
                        CHANNELS 3 Zrotation Xrotation Yrotation
                        JOINT LeftHandIndex3
                        {
                          OFFSET 2.0521 0 0
                          CHANNELS 3 Zrotation Xrotation Yrotation
                          End Site
                          {
                            OFFSET 1.805 0 0
                          }
                        }
                      }
                    }
                  }
                  JOINT LeftInHandMiddle
                  {
                    OFFSET 3.38211 0.517263 0.756737
                    CHANNELS 3 Zrotation Xrotation Yrotation
                    JOINT LeftHandMiddle1
                    {
                      OFFSET 5.17411 -0.084 0.313895
                      CHANNELS 3 Zrotation Xrotation Yrotation
                      JOINT LeftHandMiddle2
                      {
                        OFFSET 3.94947 0 0
                        CHANNELS 3 Zrotation Xrotation Yrotation
                        JOINT LeftHandMiddle3
                        {
                          OFFSET 2.47579 0 0
                          CHANNELS 3 Zrotation Xrotation Yrotation
                          End Site
                          {
                            OFFSET 1.975 0 0
                          }
                        }
                      }
                    }
                  }
                  JOINT LeftInHandRing
                  {
                    OFFSET 3.36516 0.537895 -0.128947
                    CHANNELS 3 Zrotation Xrotation Yrotation
                    JOINT LeftHandRing1
                    {
                      OFFSET 4.63474 -0.022105 -0.478947
                      CHANNELS 3 Zrotation Xrotation Yrotation
                      JOINT LeftHandRing2
                      {
                        OFFSET 3.44238 0 0
                        CHANNELS 3 Zrotation Xrotation Yrotation
                        JOINT LeftHandRing3
                        {
                          OFFSET 2.3881 0 0
                          CHANNELS 3 Zrotation Xrotation Yrotation
                          End Site
                          {
                            OFFSET 1.857 0 0
                          }
                        }
                      }
                    }
                  }
                  JOINT LeftInHandPinky
                  {
                    OFFSET 3.16105 0.469368 -1.20179
                    CHANNELS 3 Zrotation Xrotation Yrotation
                    JOINT LeftHandPinky1
                    {
                      OFFSET 4.14105 -0.022105 -1.09053
                      CHANNELS 3 Zrotation Xrotation Yrotation
                      JOINT LeftHandPinky2
                      {
                        OFFSET 2.75653 0 0
                        CHANNELS 3 Zrotation Xrotation Yrotation
                        JOINT LeftHandPinky3
                        {
                          OFFSET 1.74189 0 0
                          CHANNELS 3 Zrotation Xrotation Yrotation
                          End Site
                          {
                            OFFSET 1.645 0 0
                          }
                        }
                      }
                    }
                  }
                }
              }
            }
          }
        }
      }
    }
  }
}
MOTION
Frames: 3
Frame Time: 0.00833333
1.499998295414901861e+02 2.524159637080617551e-06 -7.673634619171741797e-04 1.269770406682878489e-03 3.894909817271836362e-03 4.806349237232901417e-03 -6.690627992151498317e-03 -1.729669173852489130e-03 -1.089383665454118910e-02 -4.774171236087990100e-03 -6.831663187795939361e-03 4.145337738860262883e-02 6.390098281264907504e-03 3.281190290067699696e-03 -4.010039866120652247e-02 -1.463800677487513049e-03 -4.074357441321482635e-03 -2.772342950257772332e-03 6.033797151176849283e-03 -2.170118574363936580e-03 -7.223631168837903183e-03 -9.383926571845727354e-04 2.001393284087728350e-03 1.526902018843037927e-03 -4.310878875875260967e-03 3.524759124951296844e-03 -4.917352759250038542e-03 -1.082546605948765325e-03 1.054228938099614201e-03 -1.403722602709332355e-03 -1.740877455656454241e-03 1.730657650558738202e-03 -2.672895791916695199e-03 1.556109024250420213e-03 6.503026750725479470e-04 -3.277072882293632808e-04 1.559671247455622937e-03 6.578769335708918716e-04 -3.289242237740460295e-04 2.683999192910907494e-02 -3.655739189296203901e-04 -2.008183968766888775e-02 -9.116523167647033049e-03 -3.177636768610324347e-02 2.619967055027392841e-02 -6.416272624893960830e-02 5.484239973504987514e-02 6.122498018497528338e-02 -2.980587280001413264e-01 -4.490035995835961469e-02 -3.232992570220970530e-01 3.150005419289117481e-02 -2.284743434001424572e-02 1.269775608980819315e-02 0.000000000000000000e+00 0.000000000000000000e+00 0.000000000000000000e+00 5.976453986608458106e-14 -1.170312328264378148e-14 0.000000000000000000e+00 -2.364016213652483417e-14 -6.744232803234777614e-15 0.000000000000000000e+00 -1.830164881757934029e-16 -8.742671383474618592e-16 2.228625212413132374e-15 0.000000000000000000e+00 0.000000000000000000e+00 0.000000000000000000e+00 0.000000000000000000e+00 -9.043693308475880727e-15 -3.732656692955676901e-14 0.000000000000000000e+00 -1.408053246502839860e-15 -1.690870277152505658e-14 -1.830164881757934029e-16 -8.742671383474618592e-16 2.228625212413132374e-15 0.000000000000000000e+00 -1.616074025686006375e-15 -1.156777434578680417e-14 0.000000000000000000e+00 -5.052837513768790800e-15 -3.457499663692789260e-14 0.000000000000000000e+00 -2.651313879877136665e-15 -1.697970883061475395e-14 -1.830164881757934029e-16 -8.742671383474618592e-16 2.228625212413132374e-15 0.000000000000000000e+00 0.000000000000000000e+00 0.000000000000000000e+00 0.000000000000000000e+00 -1.212234913060903494e-14 -3.242373025883881209e-14 0.000000000000000000e+00 4.697238846577626153e-16 -1.649569593235687909e-14 -1.830164881757934029e-16 -8.742671383474618592e-16 2.228625212413132374e-15 0.000000000000000000e+00 0.000000000000000000e+00 0.000000000000000000e+00 0.000000000000000000e+00 -8.037473858951709684e-15 -2.217301225785619056e-14 0.000000000000000000e+00 -3.440253472673642492e-15 -1.919850303210130074e-14 -2.552504047382021194e-03 -1.091353361784247987e-02 1.288588838331037462e-02 -7.587191844168540700e-02 -1.252797013401581519e-02 5.981014402730801260e-02 -7.126222154795482933e-01 1.790769173058514241e+00 -7.581844920924067921e-01 -7.309507962536204717e-01 -1.774133679294747301e+00 -6.864417355086720463e-01 0.000000000000000000e+00 0.000000000000000000e+00 0.000000000000000000e+00 2.297206271272606969e-15 5.079081481073157914e-15 0.000000000000000000e+00 -4.739016334504268872e-16 4.167594184227515432e-15 0.000000000000000000e+00 -1.699632569851924596e-15 3.653619238295315596e-16 2.072163653228946785e-15 0.000000000000000000e+00 0.000000000000000000e+00 0.000000000000000000e+00 0.000000000000000000e+00 -2.138411095762637367e-15 8.556175526071524110e-15 0.000000000000000000e+00 -7.429267680845879522e-16 8.363027672672991438e-15 -1.699632569851924596e-15 3.653619238295315596e-16 2.072163653228946785e-15 0.000000000000000000e+00 -3.695842354045248045e-15 1.704138610310161148e-15 0.000000000000000000e+00 2.942062386992599627e-16 1.206116238807394571e-14 0.000000000000000000e+00 -9.650706601549241966e-16 1.296541362758499496e-14 -1.699632569851924596e-15 3.653619238295315596e-16 2.072163653228946785e-15 0.000000000000000000e+00 0.000000000000000000e+00 0.000000000000000000e+00 0.000000000000000000e+00 -2.606366705396587188e-15 6.086666780851156213e-15 0.000000000000000000e+00 -7.184691705001606604e-16 1.379514195090791186e-14 -1.699632569851924596e-15 3.653619238295315596e-16 2.072163653228946785e-15 0.000000000000000000e+00 0.000000000000000000e+00 0.000000000000000000e+00 0.000000000000000000e+00 -2.258043295886755491e-15 4.408489379741481689e-15 0.000000000000000000e+00 -3.863478696536876620e-15 7.279764549454551352e-15
1.500000283972811701e+02 3.508732825045925204e-06 1.522880017773540779e-04 -3.022534501259746282e-03 -7.723287762131858178e-03 -2.913421488602220555e-03 1.530393627201667717e-02 3.597577438282121339e-03 1.680579302399136041e-02 -1.225760571007149767e-02 -5.471626080817416395e-03 1.880260658760908934e-02 4.256509323013375930e-03 4.559067547365229511e-03 -1.200703013936991678e-02 -5.982890219522606946e-03 8.596123675479591317e-03 8.703534129054180070e-04 -7.532397431994399158e-03 8.008983944306895600e-03 1.226129025811810089e-02 -3.732086762750265636e-03 -8.780432567330255164e-03 -1.112316948060253566e-02 7.216065375967693415e-03 -3.647894256231625377e-03 6.078741149740246597e-03 1.819716652336464228e-03 -1.270681738781115995e-03 1.817573995084153377e-03 2.918416023059139299e-03 -2.116342454003905874e-03 3.491930773098673047e-03 -1.186805443654014654e-04 -1.050948617749463245e-03 -5.161232144218515358e-04 -1.205946209721973054e-04 -1.036475889855982113e-03 -5.200698063703310331e-04 -1.408152093324746557e-03 1.792081776995233314e-02 -1.848975001591021336e-02 -3.820051987479016180e-03 4.991451020418240236e-02 -1.255440113690974545e-02 1.097791263950695928e-01 -9.861455371120989022e-02 -8.049456272104667243e-02 4.623911454494752937e-01 6.152649339302537768e-02 5.357073490219862455e-01 -1.815379201179349172e-02 2.465812999970533673e-02 -3.052346647773842431e-03 0.000000000000000000e+00 0.000000000000000000e+00 0.000000000000000000e+00 -1.220194348660971228e-14 5.464481741229454396e-15 0.000000000000000000e+00 -1.140252054600723698e-14 8.045427691940671075e-15 0.000000000000000000e+00 1.733022730841454072e-15 1.792422024548697631e-16 5.785603291129606394e-15 0.000000000000000000e+00 0.000000000000000000e+00 0.000000000000000000e+00 0.000000000000000000e+00 -3.190572055706415987e-15 -2.894096965676001559e-14 0.000000000000000000e+00 1.420612398902151928e-15 1.731832476810084506e-14 1.733022730841454072e-15 1.792422024548697631e-16 5.785603291129606394e-15 0.000000000000000000e+00 4.874331352022492848e-15 -1.275685722432212639e-14 0.000000000000000000e+00 7.564140994367956658e-16 -3.500284387787298006e-14 0.000000000000000000e+00 3.553807036032595060e-15 8.374734797425421713e-17 1.733022730841454072e-15 1.792422024548697631e-16 5.785603291129606394e-15 0.000000000000000000e+00 0.000000000000000000e+00 0.000000000000000000e+00 0.000000000000000000e+00 -6.943725337659315368e-15 -2.597824330624576920e-14 0.000000000000000000e+00 3.316520011421304595e-15 5.472691044107432283e-15 1.733022730841454072e-15 1.792422024548697631e-16 5.785603291129606394e-15 0.000000000000000000e+00 0.000000000000000000e+00 0.000000000000000000e+00 0.000000000000000000e+00 -5.751766133744898522e-15 -1.899746370656361321e-14 0.000000000000000000e+00 -3.385039194800060269e-16 -2.845271511857355162e-15 6.901174624368765394e-03 1.356365568437998929e-02 -2.070522442731997925e-02 9.692279050491653392e-02 1.018992460405099276e-02 -6.654862794381660729e-02 -9.132609551649392698e-02 3.971558042646430309e-01 -9.322760980362349015e-02 -1.995948041633035380e-02 -2.166023954921602601e-01 -5.493334974648086261e-02 0.000000000000000000e+00 0.000000000000000000e+00 0.000000000000000000e+00 -2.218527836605121095e-15 -2.511846503944806460e-15 0.000000000000000000e+00 -2.386169248604279460e-15 4.906066499275639817e-15 0.000000000000000000e+00 -2.665897264550777749e-17 -5.635718199795740568e-15 3.750746158617221850e-15 0.000000000000000000e+00 0.000000000000000000e+00 0.000000000000000000e+00 0.000000000000000000e+00 -3.844754678237993924e-15 1.632878344901697008e-14 0.000000000000000000e+00 -7.293302628951748933e-15 3.286030404293734999e-15 -2.665897264550777749e-17 -5.635718199795740568e-15 3.750746158617221850e-15 0.000000000000000000e+00 -1.920085554745374651e-15 7.803083274986807859e-16 0.000000000000000000e+00 -1.373143040547886291e-15 9.210859558172314229e-15 0.000000000000000000e+00 -2.144757150243221878e-15 2.075308958475228015e-14 -2.665897264550777749e-17 -5.635718199795740568e-15 3.750746158617221850e-15 0.000000000000000000e+00 0.000000000000000000e+00 0.000000000000000000e+00 0.000000000000000000e+00 6.492599052707419540e-15 2.040574446348731831e-14 0.000000000000000000e+00 1.099126503236466354e-15 3.558209180206383090e-14 -2.665897264550777749e-17 -5.635718199795740568e-15 3.750746158617221850e-15 0.000000000000000000e+00 0.000000000000000000e+00 0.000000000000000000e+00 0.000000000000000000e+00 -8.717535698145757234e-15 -9.328749031607641090e-16 0.000000000000000000e+00 -8.387685071005743741e-15 5.124608519632332967e-15
1.500000929474756788e+02 1.370901227361016220e-06 6.416605669500336385e-04 -1.278687712201620951e-03 -3.536783289888361520e-03 -4.605609173917147268e-03 6.381864232356855224e-03 1.403923408245040701e-03 1.059873483612884873e-02 4.738058666900636130e-03 6.624124302003917865e-03 -3.910652570695333924e-02 -6.051898157917372754e-03 -3.159125378597434693e-03 3.729728258184513562e-02 1.331539572229967694e-03 4.043314314767405826e-03 3.461185071578170343e-03 -4.494146720912848593e-03 2.043171331470636839e-03 5.925517272149172059e-03 3.302186771705149359e-04 -2.090027942901233164e-03 -1.933819932025606682e-03 3.558186413643450296e-03 -2.934172622246219476e-03 5.122968415397469340e-03 9.202116496446251931e-04 -8.745406937990815935e-04 1.307900440139701673e-03 1.467216729559785550e-03 -1.444632246992772319e-03 2.663991302530737109e-03 -1.132038697179951498e-03 -5.044978332527400456e-04 -2.021203419462856547e-04 -1.134651026083194824e-03 -5.118681957393526362e-04 -2.043303731870995397e-04 -1.957221090944311070e-02 2.174716462653534556e-03 9.859103275674931804e-03 6.594759450776746176e-03 2.816152177244957144e-02 -2.038594564938876752e-02 6.715348059971490424e-02 -5.163641082009388927e-02 -6.209697634464012017e-02 2.671986333191845309e-01 4.711140803479238470e-02 2.956976830510878451e-01 -2.186656839086361173e-02 2.577710724963524699e-02 -7.622904356319741732e-03 0.000000000000000000e+00 0.000000000000000000e+00 0.000000000000000000e+00 -5.400135331533651895e-14 1.048921015448783746e-14 0.000000000000000000e+00 2.458927389432409272e-14 5.727360114955369428e-15 0.000000000000000000e+00 3.386383656369845867e-16 1.192778954436961986e-15 -2.158693710587787854e-15 0.000000000000000000e+00 0.000000000000000000e+00 0.000000000000000000e+00 0.000000000000000000e+00 5.997996047673956808e-15 2.512357781205797629e-14 0.000000000000000000e+00 1.379486175919824000e-15 1.585775205810173461e-14 3.386383656369845867e-16 1.192778954436961986e-15 -2.158693710587787854e-15 0.000000000000000000e+00 1.568970204548069964e-15 8.433515814964138962e-15 0.000000000000000000e+00 4.066581068200989797e-15 2.594906235030027125e-14 0.000000000000000000e+00 2.974737444361483719e-15 1.587926840859470273e-14 3.386383656369845867e-16 1.192778954436961986e-15 -2.158693710587787854e-15 0.000000000000000000e+00 0.000000000000000000e+00 0.000000000000000000e+00 0.000000000000000000e+00 1.011560739992149649e-14 2.542459772422628387e-14 0.000000000000000000e+00 -4.599905894545858086e-16 1.500895648727446099e-14 3.386383656369845867e-16 1.192778954436961986e-15 -2.158693710587787854e-15 0.000000000000000000e+00 0.000000000000000000e+00 0.000000000000000000e+00 0.000000000000000000e+00 6.610705272376738269e-15 1.713878331005560502e-14 0.000000000000000000e+00 3.121232849539714173e-15 1.750787781197251950e-14 1.472160733401381861e-03 9.627551197738599617e-03 -1.204167200047183417e-02 6.617627392052798097e-02 9.921683969283780560e-03 -5.051599118245895387e-02 6.653170027883386073e-01 -1.678817433198400710e+00 7.079988105556095368e-01 6.831815071458660071e-01 1.660037791834269028e+00 6.423651315650856786e-01 0.000000000000000000e+00 0.000000000000000000e+00 0.000000000000000000e+00 -1.652178779064616840e-15 -4.721949321038492257e-15 0.000000000000000000e+00 7.415047108751121552e-16 -3.768712889464921101e-15 0.000000000000000000e+00 1.788249217746141919e-15 4.410352314850961268e-17 -1.885653702851895770e-15 0.000000000000000000e+00 0.000000000000000000e+00 0.000000000000000000e+00 0.000000000000000000e+00 1.584107876521676996e-15 -7.831570019186133357e-15 0.000000000000000000e+00 6.575085222549152925e-16 -7.367998571748543404e-15 1.788249217746141919e-15 4.410352314850961268e-17 -1.885653702851895770e-15 0.000000000000000000e+00 3.080746546377747196e-15 -9.656284210785096882e-16 0.000000000000000000e+00 -9.744870356622971717e-16 -1.107757145094211015e-14 0.000000000000000000e+00 7.414792942039973392e-16 -1.138181355612284923e-14 1.788249217746141919e-15 4.410352314850961268e-17 -1.885653702851895770e-15 0.000000000000000000e+00 0.000000000000000000e+00 0.000000000000000000e+00 0.000000000000000000e+00 2.520868851022680943e-15 -5.297695837523423292e-15 0.000000000000000000e+00 3.366598638945728190e-16 -1.186188917938555161e-14 1.788249217746141919e-15 4.410352314850961268e-17 -1.885653702851895770e-15 0.000000000000000000e+00 0.000000000000000000e+00 0.000000000000000000e+00 0.000000000000000000e+00 2.173972252343457349e-15 -4.134732312713893339e-15 0.000000000000000000e+00 3.426463646226942387e-15 -6.183200101645272713e-15
